<svg width="59" height="59" viewBox="0 0 59 59" fill="none" xmlns="http://www.w3.org/2000/svg">
<path d="M10 31.6667C5.85787 31.6667 3.33334 28.3088 3.33334 24.1667C3.33334 20.0246 6.69121 16.6667 10.8333 16.6667H11.6667V15C11.6667 10.3976 15.3976 6.66669 20 6.66669C24.6024 6.66669 28.3333 10.3976 28.3333 15V16.6667H29.1667C33.3088 16.6667 36.6667 20.0246 36.6667 24.1667C36.6667 28.3088 34.1421 31.6667 30 31.6667" stroke="#6A4BFF" stroke-width="2.5" stroke-linecap="round" stroke-linejoin="round"/>
<path d="M15 32.5001V25.8334C15 25.3732 15.3731 25.0001 15.8333 25.0001H24.1666C24.6269 25.0001 25 25.3732 25 25.8334V32.5001C25 32.9603 24.6269 33.3334 24.1666 33.3334H15.8333C15.3731 33.3334 15 32.9603 15 32.5001Z" stroke="#6A4BFF" stroke-width="2.5" stroke-linecap="round" stroke-linejoin="round"/>
<path d="M16.6666 25.0001V23.3334C16.6666 21.4924 18.159 20.0001 20 20.0001V20.0001C21.8409 20.0001 23.3333 21.4924 23.3333 23.3334V25.0001" stroke="#6A4BFF" stroke-width="2.5" stroke-linecap="round" stroke-linejoin="round"/>
</svg>
