<?xml version="1.0" standalone="no"?>
<!DOCTYPE svg PUBLIC "-//W3C//DTD SVG 20010904//EN"
 "http://www.w3.org/TR/2001/REC-SVG-20010904/DTD/svg10.dtd">
<svg version="1.0" xmlns="http://www.w3.org/2000/svg"
 width="2251.000000pt" height="2251.000000pt" viewBox="0 0 2251.000000 2251.000000"
 preserveAspectRatio="xMidYMid meet">
<metadata>
Created by potrace 1.14, written by Peter Selinger 2001-2017
</metadata>
<g transform="translate(0.000000,2251.000000) scale(0.100000,-0.100000)"
fill="#000000" stroke="none">
<path d="M13080 19919 c-157 -18 -348 -89 -480 -179 -145 -98 -276 -252 -355
-414 -36 -74 -171 -519 -703 -2316 -363 -1224 -1129 -3810 -1702 -5747 -574
-1938 -1046 -3523 -1049 -3523 -3 0 -478 1214 -1055 2698 -576 1483 -1074
2751 -1106 2817 -148 306 -409 508 -750 582 -81 17 -183 18 -2005 18 -1820 0
-1924 -1 -2005 -18 -231 -50 -420 -154 -573 -316 -120 -128 -213 -293 -259
-461 -20 -76 -23 -106 -22 -280 0 -225 12 -286 88 -446 61 -128 106 -194 206
-298 140 -146 294 -235 509 -294 l96 -27 1510 -5 1509 -5 1503 -3860 c826
-2123 1514 -3885 1528 -3915 195 -400 632 -641 1075 -592 268 30 467 126 655
316 110 112 184 224 234 355 16 42 537 1792 1157 3888 l1129 3813 2600 0
c2830 0 2696 -2 2870 56 279 93 495 283 625 549 157 321 141 711 -43 1018
-151 253 -389 426 -687 500 l-85 21 -2317 3 c-1942 3 -2318 6 -2318 17 0 7
259 887 575 1955 316 1068 575 1943 575 1946 0 3 1448 6 3218 7 l3217 3 96 26
c204 57 342 134 483 269 140 135 247 314 298 500 20 75 23 107 23 275 0 150
-4 204 -18 255 -58 213 -158 383 -307 524 -145 137 -305 220 -520 272 -72 18
-238 18 -3710 20 -1999 1 -3669 -2 -3710 -7z"/>
</g>
</svg>
